<svg xmlns="http://www.w3.org/2000/svg" viewBox="0 0 223.61 124.86"><defs><style>.cls-1,.cls-2{fill:#1d1d1b;}.cls-2{font-size:72px;font-family:HSN_Golden, HSN Golden;}</style></defs><g id="Layer_2" data-name="Layer 2"><g id="itiration_4" data-name="itiration 4"><circle class="cls-1" cx="24.28" cy="41.31" r="11.45"/><circle class="cls-1" cx="47.09" cy="41.15" r="11.45"/><circle class="cls-1" cx="208.93" cy="43.71" r="14.68"/><path class="cls-1" d="M94,28.18h63.48a0,0,0,0,1,0,0V42.23a0,0,0,0,1,0,0H87.28a0,0,0,0,1,0,0V34.94A6.76,6.76,0,0,1,94,28.18Z" transform="translate(87.2 157.6) rotate(-90)"/><polygon class="cls-1" points="110.25 40.91 110.27 79.55 96.76 91.08 96.76 40.91 110.25 40.91"/><rect class="cls-1" x="84.76" y="79.05" width="12.6" height="11.47" transform="translate(6.27 175.84) rotate(-90)"/><polygon class="cls-1" points="92.77 0 92.77 74.25 77.5 74.39 77.5 0 92.77 0"/><polygon class="cls-1" points="0 74.25 71.71 74.25 71.78 58.98 0 58.98 0 74.25"/><path class="cls-1" d="M119.16,57.67H213.7c-15.44,6.51-28.27,11.49-31.4,12.83L126,70.38c-8.67,0-13-8-6.79-12.71Z"/><path class="cls-1" d="M96.79,91.08s5.89-.41,9.56-4.08,3.92-7.45,3.92-7.45"/><text class="cls-2" transform="translate(168.6 79.86) scale(1.54 1)">َ</text><polygon class="cls-1" points="0 58.98 0 47.3 3.59 47.3 3.59 59.05 0 58.98"/></g></g></svg>